{"title":"Harry.Potter.and.the.Halfblood.Prince.XviD.ENG.MeW","uid":5031932,"size":861339400,"categoryP":"video","categoryS":"movies","magnet":"?xt=urn:btih:2d86d0b65cd9737fe89471d8bb106f6bdfd83cae&amp;dn=Harry.Potter.and.the.Halfblood.Prince.XviD.ENG.MeW&amp;tr=udp%3A%2F%2Ftracker.openbittorrent.com%3A80&amp;tr=udp%3A%2F%2Fopen.demonii.com%3A1337&amp;tr=udp%3A%2F%2Ftracker.coppersurfer.tk%3A6969&amp;tr=udp%3A%2F%2Fexodus.desync.com%3A6969","seeders":1,"leechers":0,"uploader":"markewick","files":3,"time":1248954070,"description":"Harry.Potter.6.TS.XviD\n\nVideo is Taken from the German release by PFD Audio from STG...Thanks\n\nAudio in sync throughout this is a straight conversion from the X264 HD Camera \n\nsource to AVI. No Filters used and its quite dark in parts.\n\n\nSAMPLE Included in Torrent\n\n\nFormat                           : AVI\nFormat/Info                      : Audio Video Interleave\nFile size                        : 805 MiB\nDuration                         : 2h 17mn\nOverall bit rate                 : 816 Kbps\n\nVideo\nFormat                           : MPEG-4 Visual\nFormat profile                   : Streaming Video@L\nFormat settings, BVOP            : Yes\nFormat settings, QPel            : No\nFormat settings, GMC             : No warppoints\nFormat settings, Matrix          : Default\nCodec ID                         : XVID\nCodec ID/Hint                    : XviD\nDuration                         : 2h 17mn\nBit rate                         : 615 Kbps\nWidth                            : 720 pixels\nHeight                           : 576 pixels\nDisplay aspect ratio             : 5/4\nFrame rate                       : 25.000 fps\nStandard                         : PAL\nResolution                       : 24 bits\nColorimetry                      : 4:2:0\nScan type                        : Progressive\nBits/(Pixel*Frame)               : 0.059\nStream size                      : 606 MiB (75%)\nWriting library                  : XviD 1.1.2 (UTC 2006-11-01)\n\nAudio\nFormat                           : AC-3\nFormat/Info                      : Audio Coding 3\nCodec ID                         : 2000\nDuration                         : 2h 17mn\nBit rate mode                    : Constant\nBit rate                         : 192 Kbps\nChannel(s)                       : 2 channels\nChannel positions                : L R\nSampling rate                    : 48.0 KHz\nResolution                       : 16 bits\nStream size                      : 189 MiB (24%)\nAlignment                        : Aligned on interleaves\nInterleave, duration             : 40 ms (1.00 video frame)","torrent":{"xt":"urn:btih:2d86d0b65cd9737fe89471d8bb106f6bdfd83cae","amp;dn":"Harry.Potter.and.the.Halfblood.Prince.XviD.ENG.MeW","amp;tr":["udp%3A%2F%2Ftracker.openbittorrent.com%3A80","udp%3A%2F%2Fopen.demonii.com%3A1337","udp%3A%2F%2Ftracker.coppersurfer.tk%3A6969","udp%3A%2F%2Fexodus.desync.com%3A6969"],"infoHash":"2d86d0b65cd9737fe89471d8bb106f6bdfd83cae","infoHashBuffer":{"type":"Buffer","data":[45,134,208,182,92,217,115,127,232,148,113,216,187,16,111,107,223,216,60,174]},"announce":[],"urlList":[]}}